<mxfile host="app.diagrams.net" modified="2021-07-24T12:46:44.740Z" agent="5.0 (Windows)" etag="02W8gxk90PVYppqRW20P" version="14.9.2" type="github">
  <diagram id="io5Vtttd5gb31MnQ8bZ_" name="Page-1">
    <mxGraphModel dx="920" dy="494" grid="1" gridSize="10" guides="1" tooltips="1" connect="1" arrows="1" fold="1" page="1" pageScale="1" pageWidth="1100" pageHeight="1700" math="0" shadow="0">
      <root>
        <mxCell id="0" />
        <mxCell id="1" parent="0" />
        <mxCell id="bslfFcCDbvvt9Q8GJ0my-16" value="" style="group" vertex="1" connectable="0" parent="1">
          <mxGeometry x="650" y="30" width="400" height="350" as="geometry" />
        </mxCell>
        <mxCell id="bslfFcCDbvvt9Q8GJ0my-38" value="" style="group" vertex="1" connectable="0" parent="bslfFcCDbvvt9Q8GJ0my-16">
          <mxGeometry width="400" height="350" as="geometry" />
        </mxCell>
        <mxCell id="bslfFcCDbvvt9Q8GJ0my-1" value="" style="rounded=0;whiteSpace=wrap;html=1;" vertex="1" parent="bslfFcCDbvvt9Q8GJ0my-38">
          <mxGeometry y="40" width="400" height="310" as="geometry" />
        </mxCell>
        <mxCell id="bslfFcCDbvvt9Q8GJ0my-2" value="&lt;u&gt;&lt;b&gt;Story Component&lt;/b&gt;&lt;/u&gt;" style="text;html=1;strokeColor=none;fillColor=none;align=center;verticalAlign=middle;whiteSpace=wrap;rounded=0;" vertex="1" parent="bslfFcCDbvvt9Q8GJ0my-38">
          <mxGeometry x="130" width="140" height="20" as="geometry" />
        </mxCell>
        <mxCell id="bslfFcCDbvvt9Q8GJ0my-3" value="Avatar" style="ellipse;whiteSpace=wrap;html=1;aspect=fixed;fillColor=#7EA6E0;" vertex="1" parent="bslfFcCDbvvt9Q8GJ0my-38">
          <mxGeometry x="20" y="60" width="50" height="50" as="geometry" />
        </mxCell>
        <mxCell id="bslfFcCDbvvt9Q8GJ0my-4" value="5h" style="rounded=0;whiteSpace=wrap;html=1;fillColor=#7EA6E0;align=left;" vertex="1" parent="bslfFcCDbvvt9Q8GJ0my-38">
          <mxGeometry x="300" y="75" width="60" height="20" as="geometry" />
        </mxCell>
        <mxCell id="bslfFcCDbvvt9Q8GJ0my-6" value="&lt;div align=&quot;left&quot;&gt;Name&lt;/div&gt;" style="rounded=0;whiteSpace=wrap;html=1;fillColor=#7EA6E0;align=left;" vertex="1" parent="bslfFcCDbvvt9Q8GJ0my-38">
          <mxGeometry x="80" y="75" width="205" height="20" as="geometry" />
        </mxCell>
        <mxCell id="bslfFcCDbvvt9Q8GJ0my-8" value="&lt;div&gt;Text and Image &lt;br&gt;&lt;/div&gt;&lt;div&gt;Content&lt;/div&gt;" style="rounded=1;whiteSpace=wrap;html=1;fillColor=#7EA6E0;" vertex="1" parent="bslfFcCDbvvt9Q8GJ0my-38">
          <mxGeometry x="20" y="123" width="360" height="120" as="geometry" />
        </mxCell>
        <mxCell id="bslfFcCDbvvt9Q8GJ0my-10" value="" style="rounded=0;whiteSpace=wrap;html=1;fillColor=#FFFFFF;" vertex="1" parent="bslfFcCDbvvt9Q8GJ0my-38">
          <mxGeometry x="20" y="260" width="360" height="80" as="geometry" />
        </mxCell>
        <mxCell id="bslfFcCDbvvt9Q8GJ0my-9" value="Like" style="rounded=1;whiteSpace=wrap;html=1;fillColor=#7EA6E0;" vertex="1" parent="bslfFcCDbvvt9Q8GJ0my-38">
          <mxGeometry x="40" y="294" width="80" height="30" as="geometry" />
        </mxCell>
        <mxCell id="bslfFcCDbvvt9Q8GJ0my-12" value="&lt;div&gt;Comment&lt;/div&gt;" style="rounded=1;whiteSpace=wrap;html=1;fillColor=#7EA6E0;" vertex="1" parent="bslfFcCDbvvt9Q8GJ0my-38">
          <mxGeometry x="160" y="294" width="80" height="30" as="geometry" />
        </mxCell>
        <mxCell id="bslfFcCDbvvt9Q8GJ0my-13" value="Share" style="rounded=1;whiteSpace=wrap;html=1;fillColor=#7EA6E0;" vertex="1" parent="bslfFcCDbvvt9Q8GJ0my-38">
          <mxGeometry x="280" y="294" width="80" height="30" as="geometry" />
        </mxCell>
        <mxCell id="bslfFcCDbvvt9Q8GJ0my-14" value="Controls Panel" style="text;html=1;strokeColor=none;fillColor=none;align=center;verticalAlign=middle;whiteSpace=wrap;rounded=0;" vertex="1" parent="bslfFcCDbvvt9Q8GJ0my-38">
          <mxGeometry x="150" y="260" width="100" height="20" as="geometry" />
        </mxCell>
        <mxCell id="bslfFcCDbvvt9Q8GJ0my-36" value="" style="group" vertex="1" connectable="0" parent="1">
          <mxGeometry x="650" y="430" width="400" height="289" as="geometry" />
        </mxCell>
        <mxCell id="bslfFcCDbvvt9Q8GJ0my-19" value="" style="rounded=0;whiteSpace=wrap;html=1;" vertex="1" parent="bslfFcCDbvvt9Q8GJ0my-36">
          <mxGeometry y="29" width="400" height="260" as="geometry" />
        </mxCell>
        <mxCell id="bslfFcCDbvvt9Q8GJ0my-20" value="&lt;u&gt;&lt;b&gt;Comments List&lt;/b&gt;&lt;/u&gt;" style="text;html=1;strokeColor=none;fillColor=none;align=center;verticalAlign=middle;whiteSpace=wrap;rounded=0;" vertex="1" parent="bslfFcCDbvvt9Q8GJ0my-36">
          <mxGeometry x="130" width="140" height="20" as="geometry" />
        </mxCell>
        <mxCell id="bslfFcCDbvvt9Q8GJ0my-25" value="" style="rounded=0;whiteSpace=wrap;html=1;fillColor=#FFFFFF;" vertex="1" parent="bslfFcCDbvvt9Q8GJ0my-36">
          <mxGeometry x="20" y="189" width="360" height="80" as="geometry" />
        </mxCell>
        <mxCell id="bslfFcCDbvvt9Q8GJ0my-27" value="&lt;div&gt;Comment&lt;/div&gt;&amp;nbsp;CTA" style="rounded=1;whiteSpace=wrap;html=1;fillColor=#7EA6E0;" vertex="1" parent="bslfFcCDbvvt9Q8GJ0my-36">
          <mxGeometry x="290" y="214" width="80" height="30" as="geometry" />
        </mxCell>
        <mxCell id="bslfFcCDbvvt9Q8GJ0my-30" value="" style="group" vertex="1" connectable="0" parent="bslfFcCDbvvt9Q8GJ0my-36">
          <mxGeometry x="20" y="49" width="360" height="50" as="geometry" />
        </mxCell>
        <mxCell id="bslfFcCDbvvt9Q8GJ0my-21" value="Avatar" style="ellipse;whiteSpace=wrap;html=1;aspect=fixed;fillColor=#7EA6E0;" vertex="1" parent="bslfFcCDbvvt9Q8GJ0my-30">
          <mxGeometry width="50" height="50" as="geometry" />
        </mxCell>
        <mxCell id="bslfFcCDbvvt9Q8GJ0my-24" value="&lt;div&gt;&lt;br&gt;&lt;/div&gt;&lt;div&gt;User comment&lt;/div&gt;&lt;div&gt;&lt;br&gt;&lt;/div&gt;" style="rounded=1;whiteSpace=wrap;html=1;fillColor=#7EA6E0;" vertex="1" parent="bslfFcCDbvvt9Q8GJ0my-30">
          <mxGeometry x="60" width="300" height="50" as="geometry" />
        </mxCell>
        <mxCell id="bslfFcCDbvvt9Q8GJ0my-31" value="" style="group" vertex="1" connectable="0" parent="bslfFcCDbvvt9Q8GJ0my-36">
          <mxGeometry x="20" y="114" width="360" height="50" as="geometry" />
        </mxCell>
        <mxCell id="bslfFcCDbvvt9Q8GJ0my-32" value="Avatar" style="ellipse;whiteSpace=wrap;html=1;aspect=fixed;fillColor=#7EA6E0;" vertex="1" parent="bslfFcCDbvvt9Q8GJ0my-31">
          <mxGeometry width="50" height="50" as="geometry" />
        </mxCell>
        <mxCell id="bslfFcCDbvvt9Q8GJ0my-33" value="&lt;div&gt;&lt;br&gt;&lt;/div&gt;&lt;div&gt;User comment&lt;/div&gt;&lt;div&gt;&lt;br&gt;&lt;/div&gt;" style="rounded=1;whiteSpace=wrap;html=1;fillColor=#7EA6E0;" vertex="1" parent="bslfFcCDbvvt9Q8GJ0my-31">
          <mxGeometry x="60" width="300" height="50" as="geometry" />
        </mxCell>
        <mxCell id="bslfFcCDbvvt9Q8GJ0my-35" value="Comment Input Box" style="rounded=1;whiteSpace=wrap;html=1;fillColor=#FFFFFF;" vertex="1" parent="bslfFcCDbvvt9Q8GJ0my-36">
          <mxGeometry x="40" y="209" width="230" height="40" as="geometry" />
        </mxCell>
        <mxCell id="bslfFcCDbvvt9Q8GJ0my-51" value="" style="group" vertex="1" connectable="0" parent="1">
          <mxGeometry x="140" y="60" width="320" height="320" as="geometry" />
        </mxCell>
        <mxCell id="bslfFcCDbvvt9Q8GJ0my-40" value="&lt;b&gt;News feed&lt;/b&gt;" style="rounded=1;whiteSpace=wrap;html=1;fillColor=#FFFFFF;" vertex="1" parent="bslfFcCDbvvt9Q8GJ0my-51">
          <mxGeometry x="110" width="100" height="30" as="geometry" />
        </mxCell>
        <mxCell id="bslfFcCDbvvt9Q8GJ0my-41" value="&lt;div&gt;&lt;b&gt;Story&lt;/b&gt;&lt;/div&gt;" style="rounded=1;whiteSpace=wrap;html=1;fillColor=#FFFFFF;" vertex="1" parent="bslfFcCDbvvt9Q8GJ0my-51">
          <mxGeometry x="110" y="90" width="100" height="60" as="geometry" />
        </mxCell>
        <mxCell id="bslfFcCDbvvt9Q8GJ0my-48" style="edgeStyle=orthogonalEdgeStyle;rounded=0;orthogonalLoop=1;jettySize=auto;html=1;exitX=0.5;exitY=1;exitDx=0;exitDy=0;" edge="1" parent="bslfFcCDbvvt9Q8GJ0my-51" source="bslfFcCDbvvt9Q8GJ0my-40" target="bslfFcCDbvvt9Q8GJ0my-41">
          <mxGeometry relative="1" as="geometry" />
        </mxCell>
        <mxCell id="bslfFcCDbvvt9Q8GJ0my-42" value="Comment list" style="rounded=1;whiteSpace=wrap;html=1;fillColor=#FFFFFF;fontStyle=1" vertex="1" parent="bslfFcCDbvvt9Q8GJ0my-51">
          <mxGeometry x="110" y="180" width="100" height="60" as="geometry" />
        </mxCell>
        <mxCell id="bslfFcCDbvvt9Q8GJ0my-49" style="edgeStyle=orthogonalEdgeStyle;rounded=0;orthogonalLoop=1;jettySize=auto;html=1;exitX=0.5;exitY=1;exitDx=0;exitDy=0;entryX=0.5;entryY=0;entryDx=0;entryDy=0;" edge="1" parent="bslfFcCDbvvt9Q8GJ0my-51" source="bslfFcCDbvvt9Q8GJ0my-41" target="bslfFcCDbvvt9Q8GJ0my-42">
          <mxGeometry relative="1" as="geometry" />
        </mxCell>
        <mxCell id="bslfFcCDbvvt9Q8GJ0my-43" value="&lt;div&gt;Comment&lt;/div&gt;" style="rounded=1;whiteSpace=wrap;html=1;fillColor=#FFFFFF;fontStyle=1" vertex="1" parent="bslfFcCDbvvt9Q8GJ0my-51">
          <mxGeometry x="110" y="260" width="100" height="60" as="geometry" />
        </mxCell>
        <mxCell id="bslfFcCDbvvt9Q8GJ0my-50" style="edgeStyle=orthogonalEdgeStyle;rounded=0;orthogonalLoop=1;jettySize=auto;html=1;exitX=0.5;exitY=1;exitDx=0;exitDy=0;entryX=0.5;entryY=0;entryDx=0;entryDy=0;" edge="1" parent="bslfFcCDbvvt9Q8GJ0my-51" source="bslfFcCDbvvt9Q8GJ0my-42" target="bslfFcCDbvvt9Q8GJ0my-43">
          <mxGeometry relative="1" as="geometry" />
        </mxCell>
        <mxCell id="bslfFcCDbvvt9Q8GJ0my-44" value="Comment input" style="rounded=1;whiteSpace=wrap;html=1;fillColor=#FFFFFF;fontStyle=1" vertex="1" parent="bslfFcCDbvvt9Q8GJ0my-51">
          <mxGeometry x="230" y="180" width="90" height="60" as="geometry" />
        </mxCell>
        <mxCell id="bslfFcCDbvvt9Q8GJ0my-47" style="edgeStyle=orthogonalEdgeStyle;rounded=0;orthogonalLoop=1;jettySize=auto;html=1;exitX=1;exitY=0.5;exitDx=0;exitDy=0;entryX=0.5;entryY=0;entryDx=0;entryDy=0;" edge="1" parent="bslfFcCDbvvt9Q8GJ0my-51" source="bslfFcCDbvvt9Q8GJ0my-41" target="bslfFcCDbvvt9Q8GJ0my-44">
          <mxGeometry relative="1" as="geometry" />
        </mxCell>
        <mxCell id="bslfFcCDbvvt9Q8GJ0my-45" value="Story card" style="rounded=1;whiteSpace=wrap;html=1;fillColor=#FFFFFF;fontStyle=1" vertex="1" parent="bslfFcCDbvvt9Q8GJ0my-51">
          <mxGeometry y="180" width="90" height="60" as="geometry" />
        </mxCell>
        <mxCell id="bslfFcCDbvvt9Q8GJ0my-46" style="edgeStyle=orthogonalEdgeStyle;rounded=0;orthogonalLoop=1;jettySize=auto;html=1;exitX=0;exitY=0.5;exitDx=0;exitDy=0;entryX=0.5;entryY=0;entryDx=0;entryDy=0;" edge="1" parent="bslfFcCDbvvt9Q8GJ0my-51" source="bslfFcCDbvvt9Q8GJ0my-41" target="bslfFcCDbvvt9Q8GJ0my-45">
          <mxGeometry relative="1" as="geometry" />
        </mxCell>
      </root>
    </mxGraphModel>
  </diagram>
</mxfile>
